<?xml version="1.0" encoding="utf-8"?>
<!-- Generator: Adobe Illustrator 27.2.0, SVG Export Plug-In . SVG Version: 6.00 Build 0)  -->
<svg version="1.1" id="Layer_1" xmlns="http://www.w3.org/2000/svg" xmlns:xlink="http://www.w3.org/1999/xlink" x="0px" y="0px"
	 viewBox="0 0 1510.5 251.3" style="enable-background:new 0 0 1510.5 251.3;" xml:space="preserve">
<style type="text/css">
	.st0{fill:#FFFFFF;}
	.st1{fill:#353535;}
</style>
<g>
	<path class="st0" d="M51.1,11.9v185.3H0V11.9H51.1z"/>
	<path class="st0" d="M83.4,99.7c0-29.3-0.2-38-0.4-44.4h48.5c0.5,2.5,1.2,10.6,1.3,15.9c6.2-9.9,18.9-18.9,38.7-18.9
		c29.3,0,43.8,19.8,43.8,50.6v94.4h-49.6v-86.1c0-13.5-3-21.5-15.4-21.5c-11.4,0-17.3,6.1-17.3,25.9v81.8H83.4V99.7z"/>
	<path class="st0" d="M252.1,197.2V90.1h-17.4V55.3h17.4v-8.6c0-30.7,15-46.7,47.5-46.7c9.2,0,16.4,1.2,20.1,2.3v33.2
		c-2.2-0.4-5.5-0.7-7.9-0.7c-8,0-10.3,5.1-10.3,12.3v8.2h20.7v34.8h-20.7v107.1H252.1z"/>
	<path class="st0" d="M477.6,124.4c0,40.1-19.5,75.8-72.6,75.8c-53.3,0-71.3-36.7-71.3-75c0-31.3,16.7-72.9,73.1-72.9
		C461.1,52.3,477.6,90.8,477.6,124.4z M384.5,124.8c0,29.2,7,41.4,21.9,41.4c13.8,0,20.7-12.6,20.7-41.3c0-27.4-6.4-38.5-21.5-38.5
		C391.7,86.4,384.5,98.2,384.5,124.8z"/>
	<path class="st0" d="M657.9,137.2c0-28.8,0.5-68.1,1.4-90h-1.7c-7,40.1-20,101.9-32.1,150h-41.1c-9.3-45.9-22-109.2-28.4-150h-1.8
		c1.4,21.6,2.3,59.5,2.3,91.5v58.5h-45.6V11.9h73.5c8.4,33.5,19.4,90.8,23.1,117.7h0.9c4.2-29,17.1-79.7,27-117.7h71.3v185.3h-48.9
		v-60H657.9z"/>
	<path class="st0" d="M868.7,156.5c0,11.6,0.5,31.3,2,40.8h-43.2c-1.3-3.6-2.1-11.1-2.5-15c-8.3,11.7-21.9,17.7-40,17.7
		c-32.5,0-47.2-20.3-47.2-43.9c0-25,15.7-47.3,67.1-47.3c3.6,0,9.3,0,15.4,0V98.7c0-10-3.3-16.2-14.7-16.2c-12.4,0-15.2,6.8-16,15.9
		H743c1.4-22.6,15.7-46.1,63.7-46.1c42.4,0,61.8,15.3,61.8,48.5v55.7H868.7z M821.3,134.6c-3.7,0-7.3,0-12.4,0
		c-18.2,0-22.1,8.4-22.1,16.9c0,8.3,4.8,14.7,15.2,14.7c16.4,0,19.4-11.2,19.4-28v-3.6H821.3z"/>
	<path class="st0" d="M1033.9,180.1c0,45.3-18.3,71.2-71.5,71.2c-50.2,0-63.8-25.9-65.4-47.4h48.1c1.7,8.4,7.6,13.8,19.5,13.8
		c16.6,0,20.9-9.9,20.9-31.7v-9.5c-6.9,12.1-20.4,16.5-36.2,16.5c-34.3,0-54.6-27.5-54.6-68.5c0-44.3,25-72.2,57.7-72.2
		c21.3,0,30.4,7.2,33.9,14.8c0.1-3,0.9-9.1,1.5-11.8h46.7c-0.3,7.2-0.5,24.1-0.5,44.6L1033.9,180.1L1033.9,180.1z M945.4,123.1
		c0,22.4,6.7,35.1,20.5,35.1c15.9,0,20.5-10.7,20.5-35.2c0-24-1.9-34.9-19.9-34.9C954.7,88.1,945.4,96.8,945.4,123.1z"/>
	<path class="st0" d="M1065.8,99.7c0-29.3-0.2-38-0.4-44.4h48.5c0.5,2.5,1.2,10.6,1.3,15.9c6.2-9.9,18.9-18.9,38.7-18.9
		c29.3,0,43.8,19.8,43.8,50.6v94.4H1148v-86.1c0-13.5-3-21.5-15.4-21.5c-11.4,0-17.3,6.1-17.3,25.9v81.8h-49.6V99.7H1065.8z"/>
	<path class="st0" d="M1359.2,153.4c0,22.9,0.2,36.3,0.4,43.8h-48.3c-0.8-3.8-1.2-10.4-1.4-15.2c-9.1,13.4-20.7,18-38.5,18
		c-29.5,0-43.3-18.1-43.3-49.3V55.3h49.5V143c0,12.2,3.8,19.5,14.7,19.5c11.4,0,17.2-7.2,17.2-25.8V55.3h49.6v98.1H1359.2z"/>
	<path class="st0" d="M1428.6,152.3c1.2,10.1,8.2,15.8,19.6,15.8c10.1,0,15.5-3.6,15.5-10.6c0-7.4-7.2-10-24.8-14.8
		c-42.4-10.6-51.6-24.4-51.6-45.3c0-21.9,15.7-45.2,59.1-45.2s59.3,22,60.7,44.6h-44.8c-0.7-7.1-4.9-14-16.9-14
		c-8,0-12.6,3.2-12.6,9.5c0,5.9,5,8.5,25.7,13.6c38.1,9.6,51.7,23.2,51.7,47.2c0,29-23.4,46.8-63.1,46.8c-40.5,0-61.5-18.2-64-47.7
		h45.5V152.3z"/>
</g>
</svg>
